<?xml version="1.0" encoding="iso-8859-1"?>
<!-- Generator: Adobe Illustrator 19.0.0, SVG Export Plug-In . SVG Version: 6.00 Build 0)  -->
<svg version="1.1" id="Layer_1" xmlns="http://www.w3.org/2000/svg" xmlns:xlink="http://www.w3.org/1999/xlink" x="0px" y="0px"
	 viewBox="0 0 512 512" style="enable-background:new 0 0 512 512;" xml:space="preserve">
<g>
	<path style="fill:#FDE5A2;" d="M377.149,491.668l-26.64-26.64l-73.384,14.677H145.033l-81.136-81.136
		c-8.272-8.272-8.102-21.791,0.511-29.848c8.239-7.706,21.25-7.098,29.227,0.879l51.399,51.399l95.399-22.015l29.353-29.353
		c32.423-32.423,84.991-32.423,117.414,0l55.994,55.994c5.551,5.551,5.551,14.552,0,20.103l-45.942,45.942
		C391.701,497.22,382.701,497.22,377.149,491.668z"/>
	<path style="fill:#FDE5A2;" d="M161.991,398.118l78.166,0.587v41.513l-78.477-0.59c-11.463-0.087-20.686-9.449-20.6-20.912
		C141.166,407.255,150.528,398.032,161.991,398.118z"/>
</g>
<path style="fill:#F2C127;" d="M240.155,423.137v17.081l-78.477-0.59c-9.946-0.075-18.195-7.137-20.151-16.491L240.155,423.137z"/>
<path style="fill:#FDD042;" d="M63.918,369.234l88.455,88.455h132.091l74.912-20.431c3.593-0.979,7.435,0.04,10.069,2.674
	l39.771,39.771l-11.963,11.963c-5.551,5.551-14.552,5.551-20.103,0l-26.64-26.64l-73.384,14.677H145.034l-81.137-81.136
	C55.793,390.464,55.816,377.341,63.918,369.234z"/>
<path style="fill:#AFF0E8;" d="M502.342,308.74H9.658c-5.334,0-9.658-4.325-9.658-9.658V25.826c0-5.334,4.325-9.658,9.658-9.658
	h492.683c5.334,0,9.658,4.325,9.658,9.658v273.255C512,304.416,507.675,308.74,502.342,308.74z"/>
<path style="fill:#74DBC9;" d="M36.571,308.74H9.658c-5.334,0-9.658-4.325-9.658-9.658V25.826c0-5.334,4.325-9.658,9.658-9.658
	h26.913V308.74z"/>
<path style="fill:#2DB59F;" d="M420.571,52.74H91.429c0,30.297-24.56,54.857-54.857,54.857v109.714
	c30.297,0,54.857,24.56,54.857,54.857h329.143c0-30.297,24.56-54.857,54.857-54.857V107.597
	C445.131,107.597,420.571,83.037,420.571,52.74z M128,189.882c-15.149,0-27.429-12.28-27.429-27.429
	c0-15.149,12.28-27.429,27.429-27.429c15.149,0,27.429,12.28,27.429,27.429C155.429,177.603,143.149,189.882,128,189.882z
	 M384,189.882c-15.149,0-27.429-12.28-27.429-27.429c0-15.149,12.28-27.429,27.429-27.429c15.149,0,27.429,12.28,27.429,27.429
	C411.429,177.603,399.149,189.882,384,189.882z"/>
<path style="fill:#AFF0E8;" d="M274.286,154.454H264v-46.857h28.571c4.735,0,8.571-3.837,8.571-8.571s-3.837-8.571-8.571-8.571H264
	V80.168c0-4.735-3.837-8.571-8.571-8.571s-8.571,3.837-8.571,8.571v10.286h-9.143c-14.809,0-27.429,11.477-27.429,26.286v27.429
	c0,14.809,12.619,27.429,27.429,27.429h9.143v46.857h-27.429c-4.735,0-8.571,3.837-8.571,8.571s3.837,8.571,8.571,8.571h27.429
	v9.143c0,4.735,3.837,8.571,8.571,8.571S264,249.475,264,244.74v-9.143h10.286c14.809,0,26.286-12.619,26.286-27.429V180.74
	C300.571,165.93,289.095,154.454,274.286,154.454z M237.714,154.454c-5.357,0-10.286-4.929-10.286-10.286V116.74
	c0-5.357,4.929-9.143,10.286-9.143h9.143v46.857H237.714z M283.429,208.168c0,5.357-3.786,10.286-9.143,10.286H264v-46.857h10.286
	c5.357,0,9.143,3.786,9.143,9.143V208.168z"/>
<g>
	<path style="fill:#74DBC9;" d="M402.286,107.025h-36.571c-4.735,0-8.571-3.837-8.571-8.571c0-4.735,3.837-8.571,8.571-8.571h36.571
		c4.735,0,8.571,3.837,8.571,8.571C410.857,103.189,407.021,107.025,402.286,107.025z"/>
	<path style="fill:#74DBC9;" d="M402.286,235.025h-36.571c-4.735,0-8.571-3.837-8.571-8.571s3.837-8.571,8.571-8.571h36.571
		c4.735,0,8.571,3.837,8.571,8.571S407.021,235.025,402.286,235.025z"/>
	<path style="fill:#74DBC9;" d="M146.286,107.025h-36.571c-4.735,0-8.571-3.837-8.571-8.571c0-4.735,3.837-8.571,8.571-8.571h36.571
		c4.735,0,8.571,3.837,8.571,8.571C154.857,103.189,151.021,107.025,146.286,107.025z"/>
	<path style="fill:#74DBC9;" d="M146.286,235.025h-36.571c-4.735,0-8.571-3.837-8.571-8.571s3.837-8.571,8.571-8.571h36.571
		c4.735,0,8.571,3.837,8.571,8.571S151.021,235.025,146.286,235.025z"/>
</g>
<g>
</g>
<g>
</g>
<g>
</g>
<g>
</g>
<g>
</g>
<g>
</g>
<g>
</g>
<g>
</g>
<g>
</g>
<g>
</g>
<g>
</g>
<g>
</g>
<g>
</g>
<g>
</g>
<g>
</g>
</svg>
